<svg xmlns="http://www.w3.org/2000/svg" viewBox="0 0 480 480" width="512" height="512"><path d="M472 120h-48V8c0-4.424-3.584-8-8-8H8C3.584 0 0 3.576 0 8v352c0 4.424 3.584 8 8 8h72v104c0 4.424 3.584 8 8 8h352c22.056 0 40-17.944 40-40V128c0-4.424-3.584-8-8-8zM16 16h392v48H16V16zm64 112v224H16V80h392v40H88c-4.416 0-8 3.576-8 8zm384 312c0 13.232-10.768 24-24 24H96V184h368v256zm0-272H96v-32h368v32z" data-original="#000000" class="active-path" data-old_color="#CD1B1B" fill="#444"/><path d="M176 200c-35.288 0-64 28.712-64 64s28.712 64 64 64c4.416 0 8-3.576 8-8v-48h48c4.416 0 8-3.576 8-8 0-35.288-28.712-64-64-64zm0 56c-4.416 0-8 3.576-8 8v47.336c-22.672-3.824-40-23.592-40-47.336 0-26.472 21.528-48 48-48 23.744 0 43.512 17.328 47.336 40H176z" data-original="#000000" class="active-path" data-old_color="#CD1B1B" fill="#444"/><path d="M256 288h-48c-4.416 0-8 3.576-8 8v48c0 4.424 3.584 8 8 8 30.88 0 56-25.128 56-56 0-4.424-3.584-8-8-8zm-40 47.192V304h31.192c-3.184 15.648-15.544 28.008-31.192 31.192zM112 432h328v16H112z" data-original="#000000" class="active-path" data-old_color="#CD1B1B" fill="#444"/><path d="M425.248 235.712l-51.36 80.712L348.8 297.6c-1.936-1.464-4.432-1.936-6.784-1.352a7.985 7.985 0 00-5.304 4.44l-35.744 78.64-31.976-25.576c-3.392-2.72-8.352-2.2-11.144 1.128l-35.616 42.744-34.128-20.48a8.022 8.022 0 00-7.696-.296l-48 24 7.16 14.312 44.072-22.04 36.232 21.744A8.055 8.055 0 00224 416c2.312 0 4.584-1 6.152-2.872l34.984-41.976 33.88 27.104c1.928 1.528 4.472 2.12 6.856 1.528a8.013 8.013 0 005.424-4.472l35.88-78.936L371.2 334.4c1.776 1.336 4.032 1.896 6.232 1.472a8.038 8.038 0 005.32-3.568l56-88-13.504-8.592zM256 208h56v16h-56zm72 0h16v16h-16zm32 0h16v16h-16zm-104 32h16v16h-16zm32 0h16v16h-16zm32 0h40v16h-40zM32 32h16v16H32zm32 0h16v16H64zm32 0h16v16H96z" data-original="#000000" class="active-path" data-old_color="#CD1B1B" fill="#444"/></svg>