<svg xmlns="http://www.w3.org/2000/svg" viewBox="0 0 511.999 511.999" width="512" height="512"><path d="M291.546 329.332c-14.35 0-26.025 11.675-26.025 26.025 0 14.351 11.675 26.026 26.025 26.026 14.351 0 26.026-11.675 26.026-26.026 0-14.351-11.675-26.025-26.026-26.025zm0 35.386c-5.162 0-9.36-4.2-9.36-9.361 0-5.162 4.198-9.36 9.36-9.36 5.162 0 9.361 4.2 9.361 9.36s-4.198 9.361-9.361 9.361z" data-original="#000000" class="active-path" data-old_color="#464545" fill="#444"/><path d="M426.185 49.424l3.547-10.443a8.334 8.334 0 00-15.779-5.361l-3.543 10.428c-6.099-.508-12.244.646-17.877 3.422-8.186 4.036-14.311 11.017-17.244 19.656l-32.688 96.204h-10.072l-1.703-120.87c-.158-11.239-9.429-20.383-20.67-20.383-11.239 0-20.513 9.143-20.671 20.382l-1.703 120.87h-19.087v-97.3a8.332 8.332 0 00-1.412-4.641L228.598 3.693a8.33 8.33 0 00-13.84 0l-38.682 57.696a8.335 8.335 0 00-1.412 4.641v97.299H154.32a8.332 8.332 0 00-8.332 8.332 8.332 8.332 0 008.332 8.332h1.676v28.1H123.78c-29.546 0-53.582 24.036-53.582 53.582v122.133c0 29.546 24.037 53.582 53.582 53.582h32.216v26.332c0 26.619 21.657 48.276 48.276 48.276h175.645c26.619 0 48.276-21.657 48.276-48.276V179.994h1.677a8.332 8.332 0 008.332-8.332 8.332 8.332 0 00-8.332-8.332h-15.104l25.221-74.222c5.131-15.118-.969-31.384-13.802-39.684zM155.994 389.639h-29.218c-4.868 0-8.828-3.96-8.828-8.828V264.675c0-4.867 3.96-8.828 8.828-8.828h29.218v133.792zm0-150.457h-29.218c-14.056 0-25.493 11.435-25.493 25.493v116.136c0 14.056 11.437 25.493 25.493 25.493h29.218v14.423h-32.216c-20.357 0-36.917-16.56-36.917-36.917V261.676c0-20.357 16.56-36.917 36.917-36.917h32.216v14.423zm216.043-110.686l33.136 11.259-8.01 23.574h-36.96l11.834-34.833zm-65.89-85.802a4.025 4.025 0 014.008-3.953 4.022 4.022 0 014.007 3.952l1.7 120.636h-11.417l1.702-120.635zm-12.67 137.3c.472.15.959.252 1.454.316v94.785c0 4.548-3.7 8.248-8.248 8.248-4.548 0-8.248-3.7-8.248-8.248v-26.847c0-13.737-11.177-24.913-24.913-24.913s-24.913 11.175-24.913 24.913v52.048c0 4.548-3.701 8.248-8.249 8.248s-8.248-3.7-8.248-8.248V179.994h81.365zm-41.449-16.665H230.01V82.002a105.947 105.947 0 0022.018-4.103v85.43zm-30.35-140.033l8.287 12.361a28.508 28.508 0 01-8.286 1.224c-2.84 0-5.626-.415-8.289-1.223l8.288-12.362zm-17.812 26.567a44.984 44.984 0 0017.814 3.682c6.188 0 12.22-1.278 17.81-3.683l8.031 11.979a89.524 89.524 0 01-51.688 0l8.033-11.978zm-12.539 28.036a105.87 105.87 0 0022.018 4.103v81.326h-22.018V77.899zm220.202 385.824h-.002c0 17.43-14.181 31.611-31.611 31.611H204.271c-17.43 0-31.611-14.181-31.611-31.611V179.994h22.789v120.302c0 13.737 11.177 24.913 24.914 24.913 13.736 0 24.913-11.175 24.913-24.913v-52.048c0-4.548 3.7-8.248 8.248-8.248 4.548 0 8.248 3.7 8.248 8.248v26.847c0 13.737 11.177 24.913 24.913 24.913s24.913-11.175 24.913-24.913v-94.71l99.931-.392v283.73zm12.676-379.977l-13.67 40.23-33.136-11.259 13.669-40.231a17.389 17.389 0 018.835-10.069 17.357 17.357 0 0113.357-.874c9.14 3.103 14.048 13.064 10.945 22.203z" data-original="#000000" class="active-path" data-old_color="#464545" fill="#444"/></svg>