<svg xmlns="http://www.w3.org/2000/svg" viewBox="0 0 480 480" width="512" height="512"><path d="M480 272V40c0-22.056-17.944-40-40-40H88C65.944 0 48 17.944 48 40v160H24c-13.232 0-24 10.768-24 24v232c0 13.232 10.768 24 24 24h168c13.232 0 24-10.768 24-24v-48h24v48c0 13.232 10.768 24 24 24h192c13.232 0 24-10.768 24-24v-88c0-13.232-10.768-24-24-24h-98.232l-10.664-32H440c22.056 0 40-17.944 40-40zM200 456c0 4.416-3.592 8-8 8H24c-4.408 0-8-3.584-8-8v-16h184v16zm0-32H16V256h184v168zm0-184H16v-16c0-4.416 3.592-8 8-8h168c4.408 0 8 3.584 8 8v16zm-8-40H64V40c0-13.232 10.768-24 24-24h352c13.232 0 24 10.768 24 24v200H216v-16c0-13.232-10.768-24-24-24zm48 192h-24v-16h24v16zm1.472-32H216v-48h114.232l10.664 32H264c-10.416 0-19.216 6.712-22.528 16zM272 464h-8c-4.408 0-8-3.584-8-8v-88c0-4.416 3.592-8 8-8h8v104zm176-104h8c4.408 0 8 3.584 8 8v88c0 4.416-3.592 8-8 8h-8V360zm-16 0v104H288V360h144zm-216-64v-40h248v16c0 13.232-10.768 24-24 24H216z" data-original="#000000" class="active-path" data-old_color="#C31D1D" fill="#444"/><path data-original="#000000" class="active-path" data-old_color="#C31D1D" fill="#444" d="M170.341 162.323l96-96 11.315 11.313-96.001 96zm96.001.023l96-96.001 11.314 11.313-96 96.001zM42.336 354.343l64-64 11.314 11.313-64 64zm47.999 15.997l64-64 11.314 11.313-64 64zm215.999 56.004l47.997-47.997 11.314 11.313-47.997 47.997zm47.996.002l47.998-47.997 11.313 11.314-47.997 47.997zM432 208h16v16h-16zm-32 0h16v16h-16zm-32 0h16v16h-16z"/></svg>