<svg xmlns="http://www.w3.org/2000/svg" viewBox="0 0 480 480" width="512" height="512"><path d="M472 88H352V40c0-22.056-17.944-40-40-40H168c-22.056 0-40 17.944-40 40v48H8c-4.424 0-8 3.584-8 8v344c0 22.056 17.944 40 40 40h400c22.056 0 40-17.944 40-40V96c0-4.416-3.576-8-8-8zM144 40c0-13.232 10.768-24 24-24h144c13.232 0 24 10.768 24 24v48h-16V40c0-4.416-3.576-8-8-8H168c-4.424 0-8 3.584-8 8v48h-16V40zm160 8v40H176V48h128zM136 368v96h-32v-96a8.014 8.014 0 00-2.872-6.144L56 324.256V283.84l24-19.2V304a7.994 7.994 0 003.2 6.4l32 24a7.98 7.98 0 009.592 0l32-24a7.983 7.983 0 003.2-6.4v-39.352l24 19.2v40.408l-45.128 37.6A8.032 8.032 0 00136 368zm168 96h-80v-16h80v16zm-50.344-141.656l-12.672-12.672L254.032 264h19.936l13.048 45.672-12.672 12.672A7.979 7.979 0 00272 328v104h-16V328c0-2.12-.84-4.16-2.344-5.656zM416 464h-24v-16h-16v16h-24v-12.688l29.656-29.656A7.978 7.978 0 00384 416c0 2.048.784 4.096 2.344 5.656L416 451.312V464zm-40-59.312l-24-24v-65.376L371.312 296H376v108.688zM464 440c0 13.232-10.768 24-24 24h-8v-16c0-2.12-.84-4.16-2.344-5.656L403.312 416l26.344-26.344A7.979 7.979 0 00432 384v-72c0-2.12-.84-4.16-2.344-5.656l-24-24A7.965 7.965 0 00400 280h-32c-2.128 0-4.16.84-5.656 2.344l-24 24A7.979 7.979 0 00336 312v72c0 2.12.84 4.16 2.344 5.656L364.688 416l-26.344 26.344A7.979 7.979 0 00336 448v16h-16v-24c0-4.416-3.576-8-8-8h-24V331.312l13.656-13.656a8.012 8.012 0 002.04-7.856l-16-56A8.011 8.011 0 00280 248h-32a8.011 8.011 0 00-7.696 5.8l-16 56c-.8 2.8-.016 5.8 2.04 7.856L240 331.312V432h-24c-4.424 0-8 3.584-8 8v24h-56v-92.256l45.128-37.6A8.014 8.014 0 00200 328v-48a8.005 8.005 0 00-3-6.248l-40-32a8.046 8.046 0 00-8.472-.968A8.03 8.03 0 00144 248v52l-24 18-24-18v-52a8.01 8.01 0 00-4.528-7.208c-2.784-1.32-6.064-.96-8.472.968l-40 32a7.978 7.978 0 00-3 6.24v48a8.014 8.014 0 002.872 6.144L88 371.744V464H40c-13.232 0-24-10.768-24-24V208h448v232zm-72-35.312V296h4.688L416 315.312v65.376l-24 24zM464 192H16v-88h448v88z" data-original="#000000" class="active-path" data-old_color="#9E3F3F" fill="#444"/><path data-original="#000000" class="active-path" data-old_color="#9E3F3F" fill="#444" d="M200 152h16v16h-16zm32 0h16v16h-16zm32 0h16v16h-16z"/></svg>